# xmcd
#
# Track frame offsets: 
#        150
#        12955
#        28850
#        40560
#        55702
#        65685
#        78697
#        90980
#        104922
#        116855
#        126465
#        137127
#
# Disc length: 1997 seconds
#
# Revision: 2
# Processed by: cddbd v1.4PL0 Copyright (c) Steve Scherf et al.
# Submitted via: ExactAudioCopy v0.90b4
#
DISCID=aa07cb0c
DTITLE=Charlie Sizemore - Back Home
DYEAR=1993
DGENRE=Bluegrass
TTITLE0=Who Cares
TTITLE1=Time Can't Take Your Memory Away
TTITLE2=Roller Coaster Run
TTITLE3=Walking Home in the Rain
TTITLE4=A Dream Where a Memory Used to Be
TTITLE5=I'm Really Gone
TTITLE6=Watering Poison Ivy
TTITLE7=Back Home
TTITLE8=You Never Know Until You Cry
TTITLE9=Once More From the Bottom
TTITLE10=Nothing Happening Every Minute
TTITLE11=Thy Burdens are Greater than Mine
EXTD=
EXTT0=
EXTT1=
EXTT2=
EXTT3=
EXTT4=
EXTT5=
EXTT6=
EXTT7=
EXTT8=
EXTT9=
EXTT10=
EXTT11=
PLAYORDER=
